<?xml version="1.0" encoding="UTF-8" standalone="no"?>
<!-- Created with Inkscape (http://www.inkscape.org/) -->

<svg
   width="210"
   height="210"
   viewBox="0 0 55.5625 55.5625"
   version="1.1"
   id="svg5"
   xml:space="preserve"
   inkscape:version="1.2.2 (732a01da63, 2022-12-09)"
   sodipodi:docname="dom.svg"
   xmlns:inkscape="http://www.inkscape.org/namespaces/inkscape"
   xmlns:sodipodi="http://sodipodi.sourceforge.net/DTD/sodipodi-0.dtd"
   xmlns="http://www.w3.org/2000/svg"
   xmlns:svg="http://www.w3.org/2000/svg"><sodipodi:namedview
     id="namedview7"
     pagecolor="#ffffff"
     bordercolor="#000000"
     borderopacity="0.25"
     inkscape:showpageshadow="2"
     inkscape:pageopacity="0.0"
     inkscape:pagecheckerboard="0"
     inkscape:deskcolor="#d1d1d1"
     inkscape:document-units="mm"
     showgrid="true"
     showguides="true"
     inkscape:zoom="1.0129245"
     inkscape:cx="197.44808"
     inkscape:cy="207.8141"
     inkscape:window-width="1920"
     inkscape:window-height="991"
     inkscape:window-x="-9"
     inkscape:window-y="-9"
     inkscape:window-maximized="1"
     inkscape:current-layer="layer1"><inkscape:grid
       type="xygrid"
       id="grid1049"
       originx="0"
       originy="0" /><sodipodi:guide
       position="-89.85533,22.650368"
       orientation="1,0"
       id="guide2221"
       inkscape:locked="false" /><sodipodi:guide
       position="-6.2798507,18.252798"
       orientation="0,-1"
       id="guide2273"
       inkscape:locked="false" /><sodipodi:guide
       position="2.2164179,37.092348"
       orientation="0,-1"
       id="guide3109"
       inkscape:locked="false" /><sodipodi:guide
       position="253.89355,78.026328"
       orientation="1,0"
       id="guide4596"
       inkscape:locked="false" /><sodipodi:guide
       position="462.59823,89.258248"
       orientation="1,0"
       id="guide5324"
       inkscape:locked="false" /><sodipodi:guide
       position="424.98437,113.55053"
       orientation="1,0"
       id="guide5326"
       inkscape:locked="false" /><sodipodi:guide
       position="387.50373,105.4319"
       orientation="1,0"
       id="guide5328"
       inkscape:locked="false" /><sodipodi:guide
       position="349.63993,156.22481"
       orientation="1,0"
       id="guide5330"
       inkscape:locked="false" /><sodipodi:guide
       position="312.51493,84.930038"
       orientation="1,0"
       id="guide8962"
       inkscape:locked="false" /><sodipodi:guide
       position="274.83582,76.618468"
       orientation="1,0"
       id="guide11420"
       inkscape:locked="false" /><sodipodi:guide
       position="112.29851,-293.52332"
       orientation="0,-1"
       id="guide44990"
       inkscape:locked="false" /></sodipodi:namedview><defs
     id="defs2"><rect
       x="1336.7235"
       y="1370.2897"
       width="229.03976"
       height="107.6092"
       id="rect53773" /><rect
       x="365.79623"
       y="1214.6667"
       width="369.98474"
       height="118.67435"
       id="rect40576" /><rect
       x="643.63379"
       y="1059.6921"
       width="505.41309"
       height="163.35175"
       id="rect38938" /><rect
       x="872.60547"
       y="703.66907"
       width="312.74179"
       height="89.354797"
       id="rect28583" /><rect
       x="918.67908"
       y="554.27899"
       width="213.61382"
       height="104.71266"
       id="rect25511" /><rect
       x="1630.9211"
       y="39.489616"
       width="150.06055"
       height="97.736801"
       id="rect15088" /><rect
       x="1191.5992"
       y="49.362019"
       width="117.48161"
       height="39.489616"
       id="rect9856" /><rect
       x="1184.6885"
       y="51.336502"
       width="128.34125"
       height="35.540653"
       id="rect9744" /><style
       type="text/css"
       id="style1805">
   <![CDATA[
    .fil0 {fill:#ED1C24}
   ]]>
  </style><rect
       x="1191.5992"
       y="49.362019"
       width="117.48161"
       height="39.489616"
       id="rect9916" /><rect
       x="1191.5992"
       y="49.362019"
       width="117.48161"
       height="39.489616"
       id="rect11448" /><rect
       x="1191.5992"
       y="49.362019"
       width="121.43057"
       height="76.017509"
       id="rect13632" /><rect
       x="365.79623"
       y="1214.6667"
       width="369.98474"
       height="118.67435"
       id="rect47933" /></defs><g
     inkscape:label="Шар 1"
     inkscape:groupmode="layer"
     id="layer1"><text
       xml:space="preserve"
       transform="scale(0.26458333)"
       id="text9742"
       style="font-size:16.5082px;font-family:Impact;-inkscape-font-specification:Impact;white-space:pre;shape-inside:url(#rect9744);display:inline;fill:#333333;stroke:#2c6f00;stroke-width:0;stroke-linecap:round;stroke-linejoin:round;paint-order:stroke fill markers" /><text
       xml:space="preserve"
       transform="scale(0.26458333)"
       id="text25509"
       style="font-size:26.6667px;font-family:Impact;-inkscape-font-specification:Impact;text-align:center;white-space:pre;shape-inside:url(#rect25511);display:inline;fill:#ffffff;fill-opacity:1;stroke:#2c6f00;stroke-width:0;stroke-linecap:round;stroke-linejoin:round;paint-order:stroke fill markers" /><text
       xml:space="preserve"
       transform="scale(0.26458333)"
       id="text28581"
       style="font-size:42.6667px;font-family:Impact;-inkscape-font-specification:Impact;text-align:center;white-space:pre;shape-inside:url(#rect28583);display:inline;fill:#ffffff;fill-opacity:1;stroke:#2c6f00;stroke-width:0;stroke-linecap:round;stroke-linejoin:round;paint-order:stroke fill markers" /><circle
       style="fill:#333333;fill-opacity:1;stroke:#2c6f00;stroke-width:0;stroke-linecap:round;stroke-linejoin:round;paint-order:stroke fill markers"
       id="circle47927"
       cx="27.222994"
       cy="27.101551"
       r="26.251339" /><g
       transform="matrix(0.00308709,0,0,-0.00308709,7.5879902,44.327337)"
       fill="#000000"
       stroke="none"
       id="g47553"
       style="fill:#ffffff"><path
         d="M 5828,11600 C 5546,11350 4410,10344 3305,9365 2199,8387 1140,7448 950,7280 760,7112 490,6873 350,6750 210,6626 74,6505 48,6480 L 0,6435 330,6065 c 181,-203 336,-369 343,-369 8,1 603,521 1323,1156 3778,3332 4388,3868 4395,3866 4,-2 470,-413 1036,-914 565,-501 1842,-1631 2836,-2512 994,-881 1812,-1602 1817,-1602 5,0 12,5 15,10 5,8 11,7 21,-1 19,-15 -10,-45 339,351 153,173 293,331 312,351 l 34,36 -838,739 c -461,407 -1544,1363 -2408,2124 -863,762 -1919,1693 -2347,2070 l -776,685 h -45 -45 z"
         id="path47549"
         style="fill:#ffffff" /><path
         d="M 5707,9301 C 5343,8979 4337,8088 3472,7322 l -1572,-1393 2,-2872 3,-2872 22,-41 c 12,-23 41,-58 64,-77 83,-72 -24,-67 1561,-67 h 1428 l 2,1273 c 3,1266 3,1272 24,1317 26,58 76,108 134,134 45,21 52,21 1224,24 1304,3 1248,5 1322,-60 52,-46 81,-97 93,-163 8,-40 11,-454 11,-1292 V 0 l 1484,2 1485,3 30,29 c 17,16 45,63 63,105 l 33,76 2,2860 2,2860 -2240,1975 C 7379,9030 6400,9886 6389,9886 c -13,1 -247,-200 -682,-585 z"
         id="path47551"
         style="fill:#ffffff" /></g><text
       xml:space="preserve"
       transform="scale(0.26458333)"
       id="text53771"
       style="font-size:74.6667px;font-family:Impact;-inkscape-font-specification:Impact;text-align:center;white-space:pre;shape-inside:url(#rect53773);fill:#ffffff;fill-opacity:1;stroke:#2c6f00;stroke-width:0;stroke-linecap:round;stroke-linejoin:round;paint-order:stroke fill markers" /></g></svg>
