<?xml version="1.0" encoding="UTF-8" standalone="no"?>
<!-- Creator: CorelDRAW X7 -->

<svg
   xml:space="preserve"
   width="21mm"
   height="20mm"
   version="1.1"
   style="clip-rule:evenodd;fill-rule:evenodd;image-rendering:optimizeQuality;shape-rendering:geometricPrecision;text-rendering:geometricPrecision"
   viewBox="0 0 2100 2000"
   inkscape:version="1.2.2 (732a01da63, 2022-12-09)"
   sodipodi:docname="logo_shortcuticon.svg"
   id="svg44287"
   xmlns:inkscape="http://www.inkscape.org/namespaces/inkscape"
   xmlns:sodipodi="http://sodipodi.sourceforge.net/DTD/sodipodi-0.dtd"
   xmlns="http://www.w3.org/2000/svg"
   xmlns:svg="http://www.w3.org/2000/svg">
 <defs
   id="defs44263">
  <style
   type="text/css"
   id="style44261">
   <![CDATA[
    .fil0 {fill:#ED1C24}
   ]]>
  </style>
 <clipPath
   clipPathUnits="userSpaceOnUse"
   id="clipPath364"><rect
     style="fill:#2f2f2f;stroke:#f0e831;stroke-width:0;stroke-linecap:round;stroke-linejoin:bevel;paint-order:stroke fill markers"
     id="rect366"
     width="2305.1997"
     height="2211.6553"
     x="757.85181"
     y="2686.8733" /></clipPath></defs>
 <g
   id="Слой_x0020_1"
   inkscape:label="Слой 1"
   inkscape:groupmode="layer">
  <metadata
   id="CorelCorpID_0Corel-Layer" />
  <sodipodi:namedview
   id="base"
   pagecolor="#ffffff"
   bordercolor="#ffffff"
   borderopacity="0.0"
   inkscape:pageopacity="0.0"
   inkscape:pageshadow="0"
   inkscape:zoom="3.959798"
   inkscape:cx="98.489873"
   inkscape:cy="33.208765"
   inkscape:document-units="px"
   inkscape:current-layer="Слой_x0020_1"
   showgrid="false"
   fit-margin-top="0"
   fit-margin-left="0"
   fit-margin-right="0"
   fit-margin-bottom="0"
   inkscape:window-width="1920"
   inkscape:window-height="991"
   inkscape:window-x="-9"
   inkscape:window-y="-9"
   inkscape:window-maximized="1"
   inkscape:showpageshadow="2"
   inkscape:pagecheckerboard="0"
   inkscape:deskcolor="#d1d1d1" />
  <g
   id="g4203"
   transform="translate(-944.94048,-2740.3273)"
   clip-path="url(#clipPath364)">
   <path
   id="path3433"
   class="fil0"
   d="m 3404,3094 c 0,0 0,0 117,0 43,0 64,21 64,69 0,0 0,0 0,168 0,0 0,0 229,0 0,0 0,0 0,-168 0,-48 21,-69 69,-69 0,0 0,0 112,0 0,0 0,0 0,111 0,0 0,0 -48,0 0,0 -5,5 -5,5 0,0 0,0 0,474 0,0 0,0 -128,0 0,0 0,0 0,-237 0,0 0,0 -229,0 0,0 0,0 0,237 0,0 0,0 -128,0 0,0 0,0 0,-474 0,0 0,-5 -5,-5 0,0 0,0 -48,0 0,0 0,0 0,-111 z"
   inkscape:connector-curvature="0" />
   <path
   id="path3435"
   class="fil0"
   d="m 4330,3084 h 3 v 122 l -3,-1 c -96,0 -170,79 -170,179 0,105 74,190 170,190 l 3,-1 v 121 l -3,1 c -170,0 -309,-137 -309,-311 0,-168 139,-300 309,-300 z"
   inkscape:connector-curvature="0" />
   <path
   id="path3437"
   class="fil0"
   d="m 4333,3084 59,6 c 141,27 247,147 247,294 0,152 -106,276 -247,304 l -59,6 v -121 l 65,-14 c 63,-29 108,-96 108,-175 0,-75 -45,-138 -108,-165 l -65,-13 z"
   inkscape:connector-curvature="0" />
   <path
   id="path3439"
   class="fil0"
   d="m 4665,3094 c 0,0 0,0 179,0 h 85 v 111 h -8 c -11,0 -32,0 -75,0 0,0 0,0 0,121 0,0 0,0 36,0 h 47 v 105 h -27 c -14,0 -32,0 -56,0 0,0 0,0 0,132 0,5 0,5 6,5 0,0 0,0 38,0 h 39 v 116 h -11 c -20,0 -58,0 -135,0 -43,0 -64,-21 -64,-68 v -411 c 0,0 0,0 -54,0 0,0 0,0 0,-111 z"
   inkscape:connector-curvature="0" />
   <path
   id="path3441"
   class="fil0"
   d="m 4929,3094 h 2 c 118,0 187,64 187,159 0,57 -27,94 -53,121 48,21 79,73 79,131 0,111 -85,179 -207,179 0,0 0,0 -2,0 h -6 v -116 h 13 c 43,0 69,-26 69,-68 0,-42 -26,-69 -69,-69 0,0 0,0 -12,0 h -1 v -105 h 2 c 38,0 59,-26 59,-63 0,-37 -21,-58 -59,-58 0,0 0,0 -1,0 h -1 z"
   inkscape:connector-curvature="0" />
   <path
   id="path3443"
   class="fil0"
   d="m 5389,3094 c 0,0 0,0 54,0 h 10 v 169 c -5,11 -11,26 -11,42 0,0 0,0 -42,121 0,0 0,0 45,0 h 8 v 111 h -29 c -16,0 -35,0 -56,0 0,0 0,0 -37,95 -11,36 -32,52 -75,52 0,0 0,0 -80,0 0,0 0,0 0,-116 0,0 0,0 27,0 11,0 11,0 16,-5 0,0 0,0 170,-469 z"
   inkscape:connector-curvature="0" />
   <path
   id="path3445"
   class="fil0"
   d="m 5453,3094 h 64 c 0,0 0,0 170,469 5,5 5,5 16,5 0,0 0,0 21,0 0,0 0,0 0,116 0,0 0,0 -74,0 -43,0 -64,-16 -75,-58 0,0 0,0 -37,-89 0,0 0,0 -72,0 h -13 v -111 h 53 c 0,0 0,0 -42,-121 0,-16 -6,-31 -11,-42 z"
   inkscape:connector-curvature="0" />
   <path
   id="path3447"
   class="fil0"
   d="m 3404,3852 c 0,0 0,0 463,0 43,0 69,22 69,69 0,0 0,0 0,400 0,5 0,5 6,5 0,0 0,0 42,0 0,0 0,0 0,116 0,0 0,0 -111,0 -48,0 -70,-21 -70,-68 0,0 0,0 0,-405 0,0 0,-6 -5,-6 0,0 0,0 -213,0 0,0 0,0 0,479 0,0 0,0 -128,0 0,0 0,0 0,-479 0,0 0,0 -53,0 0,0 0,0 0,-111 z"
   inkscape:connector-curvature="0" />
   <path
   id="path3449"
   class="fil0"
   d="m 4320,3842 h 2 v 122 l -2,-1 c -97,0 -171,79 -171,179 0,105 74,190 171,190 l 2,-1 v 121 l -2,1 c -171,0 -304,-137 -304,-311 0,-168 133,-300 304,-300 z"
   inkscape:connector-curvature="0" />
   <path
   id="path3451"
   class="fil0"
   d="m 4322,3842 61,6 c 143,27 245,147 245,294 0,152 -102,276 -245,304 l -61,6 v -121 l 68,-14 c 63,-29 105,-96 105,-175 0,-75 -42,-138 -105,-165 l -68,-13 z"
   inkscape:connector-curvature="0" />
   <path
   id="path3453"
   class="fil0"
   d="m 4655,3852 c 0,0 0,0 117,0 43,0 64,22 64,69 0,0 0,0 0,400 0,5 0,5 5,5 0,0 0,0 154,0 0,0 0,0 0,-474 0,0 0,0 128,0 0,0 0,0 0,474 0,0 0,0 155,0 5,0 5,0 5,-5 0,0 0,0 0,-400 0,-47 21,-69 64,-69 0,0 0,0 117,0 0,0 0,0 0,111 0,0 0,0 -48,0 -6,0 -6,6 -6,6 0,0 0,0 0,405 0,47 -21,68 -63,68 0,0 0,0 -570,0 -48,0 -69,-21 -69,-68 0,0 0,0 0,-405 0,0 0,-6 -5,-6 0,0 0,0 -48,0 0,0 0,0 0,-111 z"
   inkscape:connector-curvature="0" />
   <path
   id="path3455"
   class="fil0"
   d="m 5565,3852 c 0,0 0,0 399,0 48,0 64,22 64,64 0,0 0,0 0,100 h -117 c 0,0 0,0 0,-47 0,-6 0,-6 -6,-6 0,0 0,0 -74,0 0,0 0,0 0,479 0,0 0,0 -128,0 0,0 0,0 0,-479 0,0 0,0 -74,0 -6,0 -6,0 -6,6 0,0 0,0 0,47 0,0 0,0 -117,0 0,0 0,0 0,-100 0,-42 16,-64 59,-64 z"
   inkscape:connector-curvature="0" />
   <path
   id="path3457"
   class="fil0"
   d="m 6193,3852 c 0,0 0,0 54,0 h 10 v 169 c -6,11 -11,26 -11,42 0,0 0,0 -43,121 0,0 0,0 45,0 h 9 v 111 h -29 c -17,0 -35,0 -57,0 0,0 0,0 -37,89 -10,42 -32,58 -74,58 0,0 0,0 -80,0 0,0 0,0 0,-116 0,0 0,0 27,0 10,0 10,0 16,-5 0,0 0,0 170,-468 z"
   inkscape:connector-curvature="0" />
   <path
   id="path3459"
   class="fil0"
   d="m 6257,3852 h 63 c 0,0 0,0 171,469 5,5 5,5 16,5 h 21 c 0,0 0,0 0,116 0,0 0,0 -74,0 -43,0 -64,-16 -75,-58 0,0 0,0 -37,-89 0,0 0,0 -72,0 h -13 v -111 h 53 c 0,0 0,0 -43,-121 0,-16 -5,-31 -10,-42 z"
   inkscape:connector-curvature="0" />
   <path
   id="path3461"
   class="fil0"
   d="m 2584,3345 c 6,-2 14,2 22,13 0,0 0,0 362,352 21,21 21,53 0,69 0,0 0,0 -362,358 -8,10 -16,13 -22,10 -6,-3 -10,-13 -10,-26 v -753 c 0,-13 4,-21 10,-23 z"
   inkscape:connector-curvature="0" />
   <path
   id="path3463"
   class="fil0"
   d="m 1965,2758 h 26 l 24,10 c 0,0 0,0 373,369 16,21 10,36 -16,36 0,0 0,0 -155,0 -26,0 -48,22 -48,48 0,0 0,0 0,274 0,26 -21,47 -53,47 0,0 0,0 -271,0 -27,0 -48,-21 -48,-47 0,0 0,0 0,-274 0,-26 -21,-48 -48,-48 h -165 c -27,0 -32,-15 -16,-36 0,0 0,0 373,-369 z"
   inkscape:connector-curvature="0" />
   <path
   id="path3465"
   class="fil0"
   d="m 1382,3337 c 6,4 10,13 10,26 v 768 c 0,14 -4,22 -10,24 -7,3 -16,0 -27,-8 0,0 0,0 -367,-368 -21,-16 -21,-48 0,-69 0,0 0,0 367,-363 11,-10 20,-13 27,-10 z"
   inkscape:connector-curvature="0" />
   <path
   id="path3467"
   class="fil0"
   d="m 1845,3942 c 0,0 0,0 271,0 32,0 54,21 54,48 0,0 0,0 0,289 0,32 21,53 47,53 h 144 c 27,0 37,15 16,31 0,0 0,0 -362,363 -11,11 -24,16 -37,16 -13,0 -27,-5 -37,-16 0,0 0,0 -362,-363 -22,-16 -11,-31 15,-31 0,0 0,0 155,0 27,0 48,-21 48,-53 0,0 0,0 0,-289 0,-27 21,-48 48,-48 z"
   inkscape:connector-curvature="0" />
  </g>
 </g>
</svg>
