<?xml version="1.0" encoding="UTF-8" standalone="no"?>
<!-- Created with Inkscape (http://www.inkscape.org/) -->

<svg
   width="202"
   height="201"
   viewBox="0 0 53.445832 53.18125"
   version="1.1"
   id="svg5"
   xml:space="preserve"
   inkscape:version="1.2.2 (732a01da63, 2022-12-09)"
   sodipodi:docname="mail.svg"
   xmlns:inkscape="http://www.inkscape.org/namespaces/inkscape"
   xmlns:sodipodi="http://sodipodi.sourceforge.net/DTD/sodipodi-0.dtd"
   xmlns="http://www.w3.org/2000/svg"
   xmlns:svg="http://www.w3.org/2000/svg"><sodipodi:namedview
     id="namedview7"
     pagecolor="#ffffff"
     bordercolor="#000000"
     borderopacity="0.25"
     inkscape:showpageshadow="2"
     inkscape:pageopacity="0.0"
     inkscape:pagecheckerboard="0"
     inkscape:deskcolor="#d1d1d1"
     inkscape:document-units="mm"
     showgrid="true"
     showguides="true"
     inkscape:zoom="1.4324916"
     inkscape:cx="131.23986"
     inkscape:cy="68.761311"
     inkscape:window-width="1920"
     inkscape:window-height="991"
     inkscape:window-x="-9"
     inkscape:window-y="-9"
     inkscape:window-maximized="1"
     inkscape:current-layer="layer1"><inkscape:grid
       type="xygrid"
       id="grid1049"
       originx="0"
       originy="0" /><sodipodi:guide
       position="-89.855328,20.269123"
       orientation="1,0"
       id="guide2221"
       inkscape:locked="false" /><sodipodi:guide
       position="-6.2798506,15.871552"
       orientation="0,-1"
       id="guide2273"
       inkscape:locked="false" /><sodipodi:guide
       position="2.2164179,34.711093"
       orientation="0,-1"
       id="guide3109"
       inkscape:locked="false" /><sodipodi:guide
       position="253.89355,75.645073"
       orientation="1,0"
       id="guide4596"
       inkscape:locked="false" /><sodipodi:guide
       position="462.59822,86.876993"
       orientation="1,0"
       id="guide5324"
       inkscape:locked="false" /><sodipodi:guide
       position="424.98436,111.16928"
       orientation="1,0"
       id="guide5326"
       inkscape:locked="false" /><sodipodi:guide
       position="387.50373,103.05065"
       orientation="1,0"
       id="guide5328"
       inkscape:locked="false" /><sodipodi:guide
       position="349.63993,153.84356"
       orientation="1,0"
       id="guide5330"
       inkscape:locked="false" /><sodipodi:guide
       position="312.51493,82.548783"
       orientation="1,0"
       id="guide8962"
       inkscape:locked="false" /><sodipodi:guide
       position="274.83582,74.237213"
       orientation="1,0"
       id="guide11420"
       inkscape:locked="false" /><sodipodi:guide
       position="112.29851,-295.90456"
       orientation="0,-1"
       id="guide44990"
       inkscape:locked="false" /></sodipodi:namedview><defs
     id="defs2"><rect
       x="1336.7235"
       y="1370.2897"
       width="229.03976"
       height="107.6092"
       id="rect53773" /><rect
       x="365.79623"
       y="1214.6667"
       width="369.98474"
       height="118.67435"
       id="rect40576" /><rect
       x="643.63379"
       y="1059.6921"
       width="505.41309"
       height="163.35175"
       id="rect38938" /><rect
       x="872.60547"
       y="703.66907"
       width="312.74179"
       height="89.354797"
       id="rect28583" /><rect
       x="918.67908"
       y="554.27899"
       width="213.61382"
       height="104.71266"
       id="rect25511" /><rect
       x="1630.9211"
       y="39.489616"
       width="150.06055"
       height="97.736801"
       id="rect15088" /><rect
       x="1191.5992"
       y="49.362019"
       width="117.48161"
       height="39.489616"
       id="rect9856" /><rect
       x="1184.6885"
       y="51.336502"
       width="128.34125"
       height="35.540653"
       id="rect9744" /><style
       type="text/css"
       id="style1805">
   <![CDATA[
    .fil0 {fill:#ED1C24}
   ]]>
  </style><rect
       x="1191.5992"
       y="49.362019"
       width="117.48161"
       height="39.489616"
       id="rect9916" /><rect
       x="1191.5992"
       y="49.362019"
       width="117.48161"
       height="39.489616"
       id="rect11448" /><rect
       x="1191.5992"
       y="49.362019"
       width="121.43057"
       height="76.017509"
       id="rect13632" /><rect
       x="365.79623"
       y="1214.6667"
       width="369.98474"
       height="118.67435"
       id="rect47933" /></defs><g
     inkscape:label="Шар 1"
     inkscape:groupmode="layer"
     id="layer1"><circle
       style="fill:#333333;fill-opacity:1;stroke:#2c6f00;stroke-width:0;stroke-linecap:round;stroke-linejoin:round;paint-order:stroke fill markers"
       id="path42758"
       cx="26.693897"
       cy="25.923626"
       r="26.251339" /><text
       xml:space="preserve"
       transform="scale(0.26458333)"
       id="text9742"
       style="font-size:16.5082px;font-family:Impact;-inkscape-font-specification:Impact;white-space:pre;shape-inside:url(#rect9744);display:inline;fill:#333333;stroke:#2c6f00;stroke-width:0;stroke-linecap:round;stroke-linejoin:round;paint-order:stroke fill markers" /><text
       xml:space="preserve"
       transform="scale(0.26458333)"
       id="text25509"
       style="font-size:26.6667px;font-family:Impact;-inkscape-font-specification:Impact;text-align:center;white-space:pre;shape-inside:url(#rect25511);display:inline;fill:#ffffff;fill-opacity:1;stroke:#2c6f00;stroke-width:0;stroke-linecap:round;stroke-linejoin:round;paint-order:stroke fill markers" /><text
       xml:space="preserve"
       transform="scale(0.26458333)"
       id="text28581"
       style="font-size:42.6667px;font-family:Impact;-inkscape-font-specification:Impact;text-align:center;white-space:pre;shape-inside:url(#rect28583);display:inline;fill:#ffffff;fill-opacity:1;stroke:#2c6f00;stroke-width:0;stroke-linecap:round;stroke-linejoin:round;paint-order:stroke fill markers" /><path
       d="m 6.6037266,25.374019 v 13.39944 H 26.711147 46.818567 V 25.374019 11.974579 H 26.711147 6.6037266 Z M 43.464577,13.821749 c -0.0562,0.0529 -3.30442,2.99712 -7.22016,6.54937 -3.91575,3.54895 -7.21687,6.54276 -7.33583,6.6485 -0.55514,0.50888 -1.20611,0.90872 -1.68526,1.03758 -0.31722,0.0826 -0.77984,0.0727 -1.09045,-0.0198 -0.47584,-0.14539 -0.99133,-0.45601 -1.50352,-0.90872 -0.39322,-0.34367 -14.46346,-13.10536 -14.62207,-13.25736 l -0.1487,-0.1454 h 16.85256 16.85256 z m -28.9831,6.46015 5.60761,5.08881 -0.10905,0.10574 c -0.0595,0.0562 -2.59067,2.35275 -5.62744,5.10203 -3.03676,2.74929 -5.5811704,5.05908 -5.6571704,5.13508 l -0.14209,0.13218 v -10.46842 -10.46841 l 0.15861,0.14539 c 0.0892,0.076 2.6832004,2.43205 5.7695304,5.2276 z m 30.38087,10.30981 -0.01,5.2408 -5.65056,-5.12515 c -3.10616,-2.81537 -5.70013,-5.17143 -5.76291,-5.23091 l -0.10905,-0.11234 5.75961,-5.2243 5.76291,-5.2276 0.01,5.22099 c 0.003,2.87155 0.003,7.57705 0,10.45851 z m -22.69478,-3.33417 c 0.70053,0.63114 1.36142,1.1995 1.7183,1.47377 1.76787,1.37134 2.86493,1.60265 4.27592,0.89551 0.76333,-0.38002 1.61256,-1.0409 3.23834,-2.51468 l 0.62784,-0.56505 0.13218,0.12887 c 0.076,0.0694 2.13466,1.93969 4.57993,4.15366 2.44527,2.21727 4.97646,4.51054 5.62743,5.10203 l 1.18629,1.07394 -8.40976,0.01 c -4.62619,0.003 -12.20654,0.003 -16.84595,0 l -8.4362,-0.01 5.76292,-5.2276 5.76622,-5.2309 0.11565,0.11235 c 0.0628,0.0595 0.36019,0.33044 0.66089,0.5981 z"
       id="path40199"
       style="fill:#ffffff;stroke:none;stroke-width:0.00330442" /><text
       xml:space="preserve"
       transform="scale(0.26458333)"
       id="text53771"
       style="font-size:74.6667px;font-family:Impact;-inkscape-font-specification:Impact;text-align:center;white-space:pre;shape-inside:url(#rect53773);fill:#ffffff;fill-opacity:1;stroke:#2c6f00;stroke-width:0;stroke-linecap:round;stroke-linejoin:round;paint-order:stroke fill markers" /></g></svg>
