<?xml version="1.0" encoding="UTF-8" standalone="no"?>
<!-- Created with Inkscape (http://www.inkscape.org/) -->

<svg
   width="205"
   height="205"
   viewBox="0 0 54.239583 54.239583"
   version="1.1"
   id="svg5"
   xml:space="preserve"
   inkscape:version="1.2.2 (732a01da63, 2022-12-09)"
   sodipodi:docname="money.svg"
   xmlns:inkscape="http://www.inkscape.org/namespaces/inkscape"
   xmlns:sodipodi="http://sodipodi.sourceforge.net/DTD/sodipodi-0.dtd"
   xmlns="http://www.w3.org/2000/svg"
   xmlns:svg="http://www.w3.org/2000/svg"><sodipodi:namedview
     id="namedview7"
     pagecolor="#ffffff"
     bordercolor="#000000"
     borderopacity="0.25"
     inkscape:showpageshadow="2"
     inkscape:pageopacity="0.0"
     inkscape:pagecheckerboard="0"
     inkscape:deskcolor="#d1d1d1"
     inkscape:document-units="mm"
     showgrid="true"
     showguides="true"
     inkscape:zoom="2.025849"
     inkscape:cx="293.70402"
     inkscape:cy="174.98836"
     inkscape:window-width="1920"
     inkscape:window-height="991"
     inkscape:window-x="-9"
     inkscape:window-y="-9"
     inkscape:window-maximized="1"
     inkscape:current-layer="layer1"><inkscape:grid
       type="xygrid"
       id="grid1049"
       originx="0"
       originy="0" /><sodipodi:guide
       position="-89.855331,21.327451"
       orientation="1,0"
       id="guide2221"
       inkscape:locked="false" /><sodipodi:guide
       position="-6.2798507,384.70071"
       orientation="0,-1"
       id="guide2273"
       inkscape:locked="false" /><sodipodi:guide
       position="2.2164179,403.54026"
       orientation="0,-1"
       id="guide3109"
       inkscape:locked="false" /><sodipodi:guide
       position="253.89355,444.47424"
       orientation="1,0"
       id="guide4596"
       inkscape:locked="false" /><sodipodi:guide
       position="462.59823,455.70616"
       orientation="1,0"
       id="guide5324"
       inkscape:locked="false" /><sodipodi:guide
       position="424.98437,479.99844"
       orientation="1,0"
       id="guide5326"
       inkscape:locked="false" /><sodipodi:guide
       position="387.50373,471.87981"
       orientation="1,0"
       id="guide5328"
       inkscape:locked="false" /><sodipodi:guide
       position="349.63993,522.67272"
       orientation="1,0"
       id="guide5330"
       inkscape:locked="false" /><sodipodi:guide
       position="312.51493,451.37795"
       orientation="1,0"
       id="guide8962"
       inkscape:locked="false" /><sodipodi:guide
       position="274.83582,443.06638"
       orientation="1,0"
       id="guide11420"
       inkscape:locked="false" /><sodipodi:guide
       position="112.29851,72.924591"
       orientation="0,-1"
       id="guide44990"
       inkscape:locked="false" /></sodipodi:namedview><defs
     id="defs2"><rect
       x="1336.7235"
       y="1370.2897"
       width="229.03976"
       height="107.6092"
       id="rect53773" /><rect
       x="365.79623"
       y="1214.6667"
       width="369.98474"
       height="118.67435"
       id="rect40576" /><rect
       x="643.63379"
       y="1059.6921"
       width="505.41309"
       height="163.35175"
       id="rect38938" /><rect
       x="872.60547"
       y="703.66907"
       width="312.74179"
       height="89.354797"
       id="rect28583" /><rect
       x="918.67908"
       y="554.27899"
       width="213.61382"
       height="104.71266"
       id="rect25511" /><rect
       x="1630.9211"
       y="39.489616"
       width="150.06055"
       height="97.736801"
       id="rect15088" /><rect
       x="1191.5992"
       y="49.362019"
       width="117.48161"
       height="39.489616"
       id="rect9856" /><rect
       x="1184.6885"
       y="51.336502"
       width="128.34125"
       height="35.540653"
       id="rect9744" /><style
       type="text/css"
       id="style1805">
   <![CDATA[
    .fil0 {fill:#ED1C24}
   ]]>
  </style><rect
       x="1191.5992"
       y="49.362019"
       width="117.48161"
       height="39.489616"
       id="rect9916" /><rect
       x="1191.5992"
       y="49.362019"
       width="117.48161"
       height="39.489616"
       id="rect11448" /><rect
       x="1191.5992"
       y="49.362019"
       width="121.43057"
       height="76.017509"
       id="rect13632" /><rect
       x="365.79623"
       y="1214.6667"
       width="369.98474"
       height="118.67435"
       id="rect47933" /></defs><g
     inkscape:label="Шар 1"
     inkscape:groupmode="layer"
     id="layer1"><text
       xml:space="preserve"
       transform="scale(0.26458333)"
       id="text9742"
       style="font-size:16.5082px;font-family:Impact;-inkscape-font-specification:Impact;white-space:pre;shape-inside:url(#rect9744);display:inline;fill:#333333;stroke:#2c6f00;stroke-width:0;stroke-linecap:round;stroke-linejoin:round;paint-order:stroke fill markers" /><text
       xml:space="preserve"
       transform="scale(0.26458333)"
       id="text25509"
       style="font-size:26.6667px;font-family:Impact;-inkscape-font-specification:Impact;text-align:center;white-space:pre;shape-inside:url(#rect25511);display:inline;fill:#ffffff;fill-opacity:1;stroke:#2c6f00;stroke-width:0;stroke-linecap:round;stroke-linejoin:round;paint-order:stroke fill markers" /><text
       xml:space="preserve"
       transform="scale(0.26458333)"
       id="text28581"
       style="font-size:42.6667px;font-family:Impact;-inkscape-font-specification:Impact;text-align:center;white-space:pre;shape-inside:url(#rect28583);display:inline;fill:#ffffff;fill-opacity:1;stroke:#2c6f00;stroke-width:0;stroke-linecap:round;stroke-linejoin:round;paint-order:stroke fill markers" /><circle
       style="fill:#333333;fill-opacity:1;stroke:#2c6f00;stroke-width:0;stroke-linecap:round;stroke-linejoin:round;paint-order:stroke fill markers"
       id="circle53769"
       cx="27.464397"
       cy="26.911865"
       r="26.251339" /><path
       d="m 33.294809,6.820147 c -0.61278,0.10976 -1.19509,0.41767 -1.59446,0.84144 -0.0823,0.0884 -0.17377,0.19512 -0.20121,0.2317 -0.0702,0.10061 -0.25305,0.13719 -0.50609,0.0976 -0.24389,-0.0396 -0.47254,-0.14329 -0.92985,-0.41767 -0.53656,-0.32316 -0.71339,-0.39023 -1.04264,-0.39023 -0.2378,0.003 -0.29573,0.0122 -0.44206,0.0854 -0.15549,0.0793 -0.17988,0.1067 -0.3628,0.41767 -0.34755,0.5945 -0.64632,0.85363 -0.98473,0.85363 -0.2256,0 -0.41156,-0.0945 -0.8018,-0.41157 -0.66766,-0.54267 -0.86887,-0.65242 -1.24081,-0.67682 -0.20731,-0.0152 -0.27133,-0.005 -0.60973,0.0945 -0.66767,0.20121 -0.81705,0.26219 -0.939,0.38413 -0.0731,0.0732 -0.1189,0.15244 -0.12805,0.21646 -0.0366,0.2317 0.0244,0.33535 0.93595,1.59752 0.48169,0.6707 0.91155,1.28958 0.95119,1.37799 0.16158,0.34755 0.10975,0.63718 -0.12805,0.75608 -0.11585,0.0579 -0.17377,0.061 -1.11582,0.0519 -1.12495,-0.005 -1.32617,0.0152 -1.68896,0.18597 -0.1189,0.0579 -0.25915,0.14938 -0.31402,0.20731 -0.15548,0.16462 -0.72864,0.9207 -1.78653,2.35968 -0.54266,0.73779 -1.17678,1.58227 -1.40239,1.87494 l -0.41462,0.53352 -0.46645,0.15548 c -0.44512,0.14939 -0.4878,0.15549 -1.0579,0.20731 -1.14021,0.0976 -1.62494,0.11585 -5.27421,0.20121 -1.8231197,0.0457 -2.5822397,0.0915 -2.8108897,0.17987 -0.18902,0.0732 -0.32926,0.21037 -0.32926,0.32316 0,0.0366 0.32012,0.70425 0.71034,1.48166 0.6920597,1.37801 1.3414197,2.71639 1.7651897,3.64013 1.26826,2.75602 1.82007,6.05774 1.82312,10.85942 v 0.77131 h 0.61888 c 0.6768,0 1.23166,-0.0305 2.27736,-0.12499 0.37804,-0.0335 0.91155,-0.0762 1.18899,-0.0976 l 0.50303,-0.0366 0.0213,-0.12196 c 0.0335,-0.17682 0.0305,-0.83838 -0.005,-1.17374 -0.0152,-0.15852 -0.0305,-0.42376 -0.0305,-0.58534 0,-0.28048 0.003,-0.29877 0.0793,-0.3567 0.16768,-0.13415 0.51524,-0.20731 1.24692,-0.26219 0.24084,-0.0183 0.53352,-0.0793 0.69206,-0.14024 l 0.0793,-0.0335 -0.0152,-0.56705 c -0.0152,-0.52133 -0.0122,-0.59145 0.0487,-0.814 0.0884,-0.3262 0.18597,-0.47255 0.31096,-0.47255 0.0519,0 0.32317,-0.0305 0.60365,-0.0671 0.42681,-0.0549 0.54266,-0.0579 0.73777,-0.0304 0.125,0.0183 0.26524,0.0488 0.30792,0.0701 l 0.0793,0.0335 -0.2195,0.26524 c -0.83839,1.00301 -1.53959,2.23467 -2.02738,3.55476 -0.27743,0.75607 -0.40242,1.24691 -0.49389,1.90542 -0.0519,0.37499 -0.0519,1.49081 -0.003,1.84446 0.27743,1.94201 1.14326,3.62183 2.64016,5.11569 0.90241,0.89936 2.04872,1.70726 3.03649,2.13408 2.28345,0.99082 5.14922,1.10058 9.35946,0.35365 2.74992,-0.48779 5.01812,-1.49081 6.42052,-2.84138 0.94204,-0.90546 1.46642,-1.85969 1.67678,-3.05478 0.0823,-0.4634 0.0427,-1.62189 -0.0823,-2.49992 -0.54571,-3.8261 -2.92368,-7.55769 -6.83514,-10.72222 -0.24695,-0.2012 -0.4634,-0.39023 -0.47865,-0.42072 -0.0457,-0.0854 -0.0366,-0.54571 0.0152,-0.7957 0.0884,-0.41462 0.28658,-0.73778 0.80486,-1.30788 0.36279,-0.39634 0.4573,-0.52438 0.53961,-0.72559 0.0945,-0.22561 0.0976,-0.53048 0.009,-0.81096 -0.0335,-0.1128 -0.0549,-0.22864 -0.0457,-0.25608 0.0305,-0.0915 0.23171,-0.27743 0.53657,-0.49389 0.15854,-0.11584 0.33537,-0.25609 0.39024,-0.31402 0.18901,-0.19511 0.42987,-0.85058 0.49693,-1.35055 0.0579,-0.44817 -0.0244,-0.76218 -0.3323,-1.25302 -0.24085,-0.38414 -0.2317,-0.70424 0.0427,-1.35971 0.32011,-0.77132 0.32925,-0.79876 0.32925,-1.1646 0.003,-0.30487 -0.003,-0.35059 -0.0793,-0.50303 -0.18902,-0.38719 -0.63718,-0.814 -1.08838,-1.04875 -0.34146,-0.17377 -0.64633,-0.26828 -1.3902,-0.42681 -0.67072,-0.14329 -0.79266,-0.18903 -0.9268,-0.34145 -0.17683,-0.20122 -0.16464,-0.47255 0.0427,-1.00302 0.3567,-0.90547 0.9268,-1.89323 1.66458,-2.88406 0.34755,-0.46645 0.54877,-0.71034 1.16155,-1.40849 0.26524,-0.30182 0.47255,-0.5579 0.46645,-0.57315 -0.0275,-0.0396 -0.32926,-0.14329 -0.5823,-0.19512 -0.13109,-0.0275 -0.44511,-0.0579 -0.69815,-0.0671 l -0.4573,-0.0183 -0.12499,-0.11281 c -0.49998,-0.45729 -1.35057,-0.6707 -2.12493,-0.53046 z"
       id="path53394"
       style="fill:#ffffff;stroke:none;stroke-width:0.00304868" /><text
       xml:space="preserve"
       transform="scale(0.26458333)"
       id="text53771"
       style="font-size:74.6667px;font-family:Impact;-inkscape-font-specification:Impact;text-align:center;white-space:pre;shape-inside:url(#rect53773);fill:#ffffff;fill-opacity:1;stroke:#2c6f00;stroke-width:0;stroke-linecap:round;stroke-linejoin:round;paint-order:stroke fill markers" /></g></svg>
